<mxfile host="app.diagrams.net" agent="Mozilla/5.0 (Windows NT 10.0; Win64; x64) AppleWebKit/537.36 (KHTML, like Gecko) Chrome/129.0.0.0 Safari/537.36" version="24.7.17">
  <diagram name="Page-1" id="72724S5zy5z_ns8Q4nsK">
    <mxGraphModel dx="2924" dy="2240" grid="1" gridSize="10" guides="1" tooltips="1" connect="1" arrows="1" fold="1" page="1" pageScale="1" pageWidth="850" pageHeight="1100" math="0" shadow="0">
      <root>
        <mxCell id="0" />
        <mxCell id="1" parent="0" />
        <mxCell id="h3RKfWugR6fdc5IdkqLa-1" value="User" style="swimlane;fontStyle=1;align=center;verticalAlign=top;childLayout=stackLayout;horizontal=1;startSize=26;horizontalStack=0;resizeParent=1;resizeParentMax=0;resizeLast=0;collapsible=1;marginBottom=0;whiteSpace=wrap;html=1;" parent="1" vertex="1">
          <mxGeometry x="-50" y="-150" width="210" height="290" as="geometry" />
        </mxCell>
        <mxCell id="h3RKfWugR6fdc5IdkqLa-2" value="+ userId: Int&lt;div&gt;+ name: String&lt;/div&gt;&lt;div&gt;+ email: String&lt;/div&gt;&lt;div&gt;+ password: String&lt;/div&gt;&lt;div&gt;+ address: String&lt;/div&gt;&lt;div&gt;+ userType(Student, Seller)&lt;/div&gt;" style="text;strokeColor=none;fillColor=none;align=left;verticalAlign=top;spacingLeft=4;spacingRight=4;overflow=hidden;rotatable=0;points=[[0,0.5],[1,0.5]];portConstraint=eastwest;whiteSpace=wrap;html=1;" parent="h3RKfWugR6fdc5IdkqLa-1" vertex="1">
          <mxGeometry y="26" width="210" height="114" as="geometry" />
        </mxCell>
        <mxCell id="h3RKfWugR6fdc5IdkqLa-3" value="" style="line;strokeWidth=1;fillColor=none;align=left;verticalAlign=middle;spacingTop=-1;spacingLeft=3;spacingRight=3;rotatable=0;labelPosition=right;points=[];portConstraint=eastwest;strokeColor=inherit;" parent="h3RKfWugR6fdc5IdkqLa-1" vertex="1">
          <mxGeometry y="140" width="210" height="8" as="geometry" />
        </mxCell>
        <mxCell id="h3RKfWugR6fdc5IdkqLa-4" value="+ register()&lt;div&gt;+ login()&lt;/div&gt;&lt;div&gt;+ logout()&lt;/div&gt;&lt;div&gt;+ updateProfile()&lt;/div&gt;&lt;div&gt;&lt;br&gt;&lt;/div&gt;" style="text;strokeColor=none;fillColor=none;align=left;verticalAlign=top;spacingLeft=4;spacingRight=4;overflow=hidden;rotatable=0;points=[[0,0.5],[1,0.5]];portConstraint=eastwest;whiteSpace=wrap;html=1;" parent="h3RKfWugR6fdc5IdkqLa-1" vertex="1">
          <mxGeometry y="148" width="210" height="142" as="geometry" />
        </mxCell>
        <mxCell id="h3RKfWugR6fdc5IdkqLa-5" value="Book" style="swimlane;fontStyle=1;align=center;verticalAlign=top;childLayout=stackLayout;horizontal=1;startSize=26;horizontalStack=0;resizeParent=1;resizeParentMax=0;resizeLast=0;collapsible=1;marginBottom=0;whiteSpace=wrap;html=1;" parent="1" vertex="1">
          <mxGeometry x="-180" y="690" width="210" height="270" as="geometry" />
        </mxCell>
        <mxCell id="h3RKfWugR6fdc5IdkqLa-6" value="+ bookId: int&lt;div&gt;+ title: String&lt;/div&gt;&lt;div&gt;+ author: String&lt;/div&gt;&lt;div&gt;+ ISBN: String&lt;/div&gt;&lt;div&gt;+ price: double&lt;/div&gt;&lt;div&gt;+ condition: String(New, Used)&lt;/div&gt;&lt;div&gt;+ genre: String&lt;/div&gt;&lt;div&gt;+ description: String&lt;/div&gt;" style="text;strokeColor=none;fillColor=none;align=left;verticalAlign=top;spacingLeft=4;spacingRight=4;overflow=hidden;rotatable=0;points=[[0,0.5],[1,0.5]];portConstraint=eastwest;whiteSpace=wrap;html=1;" parent="h3RKfWugR6fdc5IdkqLa-5" vertex="1">
          <mxGeometry y="26" width="210" height="144" as="geometry" />
        </mxCell>
        <mxCell id="h3RKfWugR6fdc5IdkqLa-7" value="" style="line;strokeWidth=1;fillColor=none;align=left;verticalAlign=middle;spacingTop=-1;spacingLeft=3;spacingRight=3;rotatable=0;labelPosition=right;points=[];portConstraint=eastwest;strokeColor=inherit;" parent="h3RKfWugR6fdc5IdkqLa-5" vertex="1">
          <mxGeometry y="170" width="210" height="8" as="geometry" />
        </mxCell>
        <mxCell id="h3RKfWugR6fdc5IdkqLa-8" value="+ addBook()&lt;div&gt;+ updateBookInfo()&lt;/div&gt;&lt;div&gt;+ removeBook()&lt;/div&gt;&lt;div&gt;+ viewBookInfo()&lt;/div&gt;&lt;div&gt;&lt;br&gt;&lt;/div&gt;" style="text;strokeColor=none;fillColor=none;align=left;verticalAlign=top;spacingLeft=4;spacingRight=4;overflow=hidden;rotatable=0;points=[[0,0.5],[1,0.5]];portConstraint=eastwest;whiteSpace=wrap;html=1;" parent="h3RKfWugR6fdc5IdkqLa-5" vertex="1">
          <mxGeometry y="178" width="210" height="92" as="geometry" />
        </mxCell>
        <mxCell id="h3RKfWugR6fdc5IdkqLa-9" value="Order" style="swimlane;fontStyle=1;align=center;verticalAlign=top;childLayout=stackLayout;horizontal=1;startSize=26;horizontalStack=0;resizeParent=1;resizeParentMax=0;resizeLast=0;collapsible=1;marginBottom=0;whiteSpace=wrap;html=1;" parent="1" vertex="1">
          <mxGeometry x="-440" y="340" width="260" height="260" as="geometry" />
        </mxCell>
        <mxCell id="h3RKfWugR6fdc5IdkqLa-10" value="+ orderId: int&lt;div&gt;+ orderDate: Date&lt;/div&gt;&lt;div&gt;+ status: String(Pending, Completed, Canceled)&lt;/div&gt;&lt;div&gt;+ totalPrice: double&lt;/div&gt;&lt;div&gt;+ userId: int()&lt;/div&gt;&lt;div&gt;&amp;nbsp;&lt;/div&gt;" style="text;strokeColor=none;fillColor=none;align=left;verticalAlign=top;spacingLeft=4;spacingRight=4;overflow=hidden;rotatable=0;points=[[0,0.5],[1,0.5]];portConstraint=eastwest;whiteSpace=wrap;html=1;" parent="h3RKfWugR6fdc5IdkqLa-9" vertex="1">
          <mxGeometry y="26" width="260" height="144" as="geometry" />
        </mxCell>
        <mxCell id="h3RKfWugR6fdc5IdkqLa-11" value="" style="line;strokeWidth=1;fillColor=none;align=left;verticalAlign=middle;spacingTop=-1;spacingLeft=3;spacingRight=3;rotatable=0;labelPosition=right;points=[];portConstraint=eastwest;strokeColor=inherit;" parent="h3RKfWugR6fdc5IdkqLa-9" vertex="1">
          <mxGeometry y="170" width="260" height="8" as="geometry" />
        </mxCell>
        <mxCell id="h3RKfWugR6fdc5IdkqLa-12" value="+ placeOrder()&lt;div&gt;+ cancelOrder()&lt;/div&gt;&lt;div&gt;+ trackOrder()&lt;/div&gt;" style="text;strokeColor=none;fillColor=none;align=left;verticalAlign=top;spacingLeft=4;spacingRight=4;overflow=hidden;rotatable=0;points=[[0,0.5],[1,0.5]];portConstraint=eastwest;whiteSpace=wrap;html=1;" parent="h3RKfWugR6fdc5IdkqLa-9" vertex="1">
          <mxGeometry y="178" width="260" height="82" as="geometry" />
        </mxCell>
        <mxCell id="h3RKfWugR6fdc5IdkqLa-17" value="CartItem" style="swimlane;fontStyle=1;align=center;verticalAlign=top;childLayout=stackLayout;horizontal=1;startSize=26;horizontalStack=0;resizeParent=1;resizeParentMax=0;resizeLast=0;collapsible=1;marginBottom=0;whiteSpace=wrap;html=1;" parent="1" vertex="1">
          <mxGeometry x="310" y="340" width="210" height="260" as="geometry" />
        </mxCell>
        <mxCell id="h3RKfWugR6fdc5IdkqLa-18" value="+ cartItemId: int&lt;div&gt;+ bookId: int()&lt;/div&gt;&lt;div&gt;+ quantity: int&lt;/div&gt;" style="text;strokeColor=none;fillColor=none;align=left;verticalAlign=top;spacingLeft=4;spacingRight=4;overflow=hidden;rotatable=0;points=[[0,0.5],[1,0.5]];portConstraint=eastwest;whiteSpace=wrap;html=1;" parent="h3RKfWugR6fdc5IdkqLa-17" vertex="1">
          <mxGeometry y="26" width="210" height="104" as="geometry" />
        </mxCell>
        <mxCell id="h3RKfWugR6fdc5IdkqLa-19" value="" style="line;strokeWidth=1;fillColor=none;align=left;verticalAlign=middle;spacingTop=-1;spacingLeft=3;spacingRight=3;rotatable=0;labelPosition=right;points=[];portConstraint=eastwest;strokeColor=inherit;" parent="h3RKfWugR6fdc5IdkqLa-17" vertex="1">
          <mxGeometry y="130" width="210" height="8" as="geometry" />
        </mxCell>
        <mxCell id="h3RKfWugR6fdc5IdkqLa-20" value="+ updateCart()&lt;div&gt;+ removeItem()&lt;/div&gt;&lt;div&gt;&lt;br&gt;&lt;/div&gt;" style="text;strokeColor=none;fillColor=none;align=left;verticalAlign=top;spacingLeft=4;spacingRight=4;overflow=hidden;rotatable=0;points=[[0,0.5],[1,0.5]];portConstraint=eastwest;whiteSpace=wrap;html=1;" parent="h3RKfWugR6fdc5IdkqLa-17" vertex="1">
          <mxGeometry y="138" width="210" height="122" as="geometry" />
        </mxCell>
        <mxCell id="h3RKfWugR6fdc5IdkqLa-21" value="Rental" style="swimlane;fontStyle=1;align=center;verticalAlign=top;childLayout=stackLayout;horizontal=1;startSize=26;horizontalStack=0;resizeParent=1;resizeParentMax=0;resizeLast=0;collapsible=1;marginBottom=0;whiteSpace=wrap;html=1;" parent="1" vertex="1">
          <mxGeometry x="-150" y="340" width="210" height="260" as="geometry" />
        </mxCell>
        <mxCell id="h3RKfWugR6fdc5IdkqLa-22" value="+ rentalId: int&lt;div&gt;+ bookId: int()&lt;/div&gt;&lt;div&gt;+ userId: int()&lt;/div&gt;&lt;div&gt;+ rentalStartDate: Date&lt;/div&gt;&lt;div&gt;+ rentalEndDate: Date&lt;/div&gt;" style="text;strokeColor=none;fillColor=none;align=left;verticalAlign=top;spacingLeft=4;spacingRight=4;overflow=hidden;rotatable=0;points=[[0,0.5],[1,0.5]];portConstraint=eastwest;whiteSpace=wrap;html=1;" parent="h3RKfWugR6fdc5IdkqLa-21" vertex="1">
          <mxGeometry y="26" width="210" height="104" as="geometry" />
        </mxCell>
        <mxCell id="h3RKfWugR6fdc5IdkqLa-23" value="" style="line;strokeWidth=1;fillColor=none;align=left;verticalAlign=middle;spacingTop=-1;spacingLeft=3;spacingRight=3;rotatable=0;labelPosition=right;points=[];portConstraint=eastwest;strokeColor=inherit;" parent="h3RKfWugR6fdc5IdkqLa-21" vertex="1">
          <mxGeometry y="130" width="210" height="8" as="geometry" />
        </mxCell>
        <mxCell id="h3RKfWugR6fdc5IdkqLa-24" value="&lt;div&gt;+ rentBook()&lt;/div&gt;&lt;div&gt;+ returnBook()&lt;/div&gt;&lt;div&gt;+ extendRental()&lt;/div&gt;" style="text;strokeColor=none;fillColor=none;align=left;verticalAlign=top;spacingLeft=4;spacingRight=4;overflow=hidden;rotatable=0;points=[[0,0.5],[1,0.5]];portConstraint=eastwest;whiteSpace=wrap;html=1;" parent="h3RKfWugR6fdc5IdkqLa-21" vertex="1">
          <mxGeometry y="138" width="210" height="122" as="geometry" />
        </mxCell>
        <mxCell id="h3RKfWugR6fdc5IdkqLa-25" value="Payment" style="swimlane;fontStyle=1;align=center;verticalAlign=top;childLayout=stackLayout;horizontal=1;startSize=26;horizontalStack=0;resizeParent=1;resizeParentMax=0;resizeLast=0;collapsible=1;marginBottom=0;whiteSpace=wrap;html=1;" parent="1" vertex="1">
          <mxGeometry x="460" y="-135" width="210" height="260" as="geometry" />
        </mxCell>
        <mxCell id="h3RKfWugR6fdc5IdkqLa-26" value="+ paymentId: int&lt;div&gt;+ paymentDate: Date&lt;/div&gt;&lt;div&gt;+ amount: double&lt;/div&gt;&lt;div&gt;+ userId: int ()&lt;/div&gt;&lt;div&gt;+ paymentMethod: String(Credit,Debit)&lt;/div&gt;" style="text;strokeColor=none;fillColor=none;align=left;verticalAlign=top;spacingLeft=4;spacingRight=4;overflow=hidden;rotatable=0;points=[[0,0.5],[1,0.5]];portConstraint=eastwest;whiteSpace=wrap;html=1;" parent="h3RKfWugR6fdc5IdkqLa-25" vertex="1">
          <mxGeometry y="26" width="210" height="104" as="geometry" />
        </mxCell>
        <mxCell id="h3RKfWugR6fdc5IdkqLa-27" value="" style="line;strokeWidth=1;fillColor=none;align=left;verticalAlign=middle;spacingTop=-1;spacingLeft=3;spacingRight=3;rotatable=0;labelPosition=right;points=[];portConstraint=eastwest;strokeColor=inherit;" parent="h3RKfWugR6fdc5IdkqLa-25" vertex="1">
          <mxGeometry y="130" width="210" height="8" as="geometry" />
        </mxCell>
        <mxCell id="h3RKfWugR6fdc5IdkqLa-28" value="+ processPayment()&lt;div&gt;&lt;br&gt;&lt;/div&gt;" style="text;strokeColor=none;fillColor=none;align=left;verticalAlign=top;spacingLeft=4;spacingRight=4;overflow=hidden;rotatable=0;points=[[0,0.5],[1,0.5]];portConstraint=eastwest;whiteSpace=wrap;html=1;" parent="h3RKfWugR6fdc5IdkqLa-25" vertex="1">
          <mxGeometry y="138" width="210" height="122" as="geometry" />
        </mxCell>
        <mxCell id="h3RKfWugR6fdc5IdkqLa-29" value="Wishlist" style="swimlane;fontStyle=1;align=center;verticalAlign=top;childLayout=stackLayout;horizontal=1;startSize=26;horizontalStack=0;resizeParent=1;resizeParentMax=0;resizeLast=0;collapsible=1;marginBottom=0;whiteSpace=wrap;html=1;" parent="1" vertex="1">
          <mxGeometry x="90" y="340" width="210" height="260" as="geometry" />
        </mxCell>
        <mxCell id="h3RKfWugR6fdc5IdkqLa-30" value="+ wishlistId: int&lt;div&gt;+ userId: int()&lt;/div&gt;&lt;div&gt;+ book: List&amp;lt;Book&amp;gt;&lt;/div&gt;&lt;div&gt;&lt;br&gt;&lt;/div&gt;" style="text;strokeColor=none;fillColor=none;align=left;verticalAlign=top;spacingLeft=4;spacingRight=4;overflow=hidden;rotatable=0;points=[[0,0.5],[1,0.5]];portConstraint=eastwest;whiteSpace=wrap;html=1;" parent="h3RKfWugR6fdc5IdkqLa-29" vertex="1">
          <mxGeometry y="26" width="210" height="104" as="geometry" />
        </mxCell>
        <mxCell id="h3RKfWugR6fdc5IdkqLa-31" value="" style="line;strokeWidth=1;fillColor=none;align=left;verticalAlign=middle;spacingTop=-1;spacingLeft=3;spacingRight=3;rotatable=0;labelPosition=right;points=[];portConstraint=eastwest;strokeColor=inherit;" parent="h3RKfWugR6fdc5IdkqLa-29" vertex="1">
          <mxGeometry y="130" width="210" height="8" as="geometry" />
        </mxCell>
        <mxCell id="h3RKfWugR6fdc5IdkqLa-32" value="+ addToWishlist()&lt;div&gt;+ removeFromWishlist()&lt;/div&gt;&lt;div&gt;+ viewWishlist()&lt;/div&gt;&lt;div&gt;&lt;br&gt;&lt;/div&gt;" style="text;strokeColor=none;fillColor=none;align=left;verticalAlign=top;spacingLeft=4;spacingRight=4;overflow=hidden;rotatable=0;points=[[0,0.5],[1,0.5]];portConstraint=eastwest;whiteSpace=wrap;html=1;" parent="h3RKfWugR6fdc5IdkqLa-29" vertex="1">
          <mxGeometry y="138" width="210" height="122" as="geometry" />
        </mxCell>
        <mxCell id="h3RKfWugR6fdc5IdkqLa-33" value="Cart" style="swimlane;fontStyle=1;align=center;verticalAlign=top;childLayout=stackLayout;horizontal=1;startSize=26;horizontalStack=0;resizeParent=1;resizeParentMax=0;resizeLast=0;collapsible=1;marginBottom=0;whiteSpace=wrap;html=1;" parent="1" vertex="1">
          <mxGeometry x="310" y="670" width="210" height="260" as="geometry" />
        </mxCell>
        <mxCell id="h3RKfWugR6fdc5IdkqLa-34" value="+ cartId: int&lt;div&gt;+ userId: int()&lt;/div&gt;&lt;div&gt;+ items: List&amp;lt;CartItem&amp;gt;&lt;/div&gt;" style="text;strokeColor=none;fillColor=none;align=left;verticalAlign=top;spacingLeft=4;spacingRight=4;overflow=hidden;rotatable=0;points=[[0,0.5],[1,0.5]];portConstraint=eastwest;whiteSpace=wrap;html=1;" parent="h3RKfWugR6fdc5IdkqLa-33" vertex="1">
          <mxGeometry y="26" width="210" height="104" as="geometry" />
        </mxCell>
        <mxCell id="h3RKfWugR6fdc5IdkqLa-35" value="" style="line;strokeWidth=1;fillColor=none;align=left;verticalAlign=middle;spacingTop=-1;spacingLeft=3;spacingRight=3;rotatable=0;labelPosition=right;points=[];portConstraint=eastwest;strokeColor=inherit;" parent="h3RKfWugR6fdc5IdkqLa-33" vertex="1">
          <mxGeometry y="130" width="210" height="8" as="geometry" />
        </mxCell>
        <mxCell id="h3RKfWugR6fdc5IdkqLa-36" value="+ addToCart()&lt;div&gt;+ removeFromCart()&lt;/div&gt;&lt;div&gt;+ viewCart()&lt;/div&gt;&lt;div&gt;+ checkOut()&lt;/div&gt;" style="text;strokeColor=none;fillColor=none;align=left;verticalAlign=top;spacingLeft=4;spacingRight=4;overflow=hidden;rotatable=0;points=[[0,0.5],[1,0.5]];portConstraint=eastwest;whiteSpace=wrap;html=1;" parent="h3RKfWugR6fdc5IdkqLa-33" vertex="1">
          <mxGeometry y="138" width="210" height="122" as="geometry" />
        </mxCell>
        <mxCell id="hjcaUcdZd7pF6FUIBuIk-5" style="edgeStyle=orthogonalEdgeStyle;rounded=0;orthogonalLoop=1;jettySize=auto;html=1;entryX=0.5;entryY=0;entryDx=0;entryDy=0;" edge="1" parent="1" source="h3RKfWugR6fdc5IdkqLa-4" target="h3RKfWugR6fdc5IdkqLa-9">
          <mxGeometry relative="1" as="geometry" />
        </mxCell>
        <mxCell id="hjcaUcdZd7pF6FUIBuIk-6" style="edgeStyle=orthogonalEdgeStyle;rounded=0;orthogonalLoop=1;jettySize=auto;html=1;entryX=0.25;entryY=0;entryDx=0;entryDy=0;" edge="1" parent="1" source="h3RKfWugR6fdc5IdkqLa-4" target="h3RKfWugR6fdc5IdkqLa-21">
          <mxGeometry relative="1" as="geometry" />
        </mxCell>
        <mxCell id="hjcaUcdZd7pF6FUIBuIk-9" style="edgeStyle=orthogonalEdgeStyle;rounded=0;orthogonalLoop=1;jettySize=auto;html=1;entryX=0.029;entryY=-0.033;entryDx=0;entryDy=0;entryPerimeter=0;" edge="1" parent="1" source="h3RKfWugR6fdc5IdkqLa-2" target="h3RKfWugR6fdc5IdkqLa-28">
          <mxGeometry relative="1" as="geometry" />
        </mxCell>
        <mxCell id="hjcaUcdZd7pF6FUIBuIk-10" style="edgeStyle=orthogonalEdgeStyle;rounded=0;orthogonalLoop=1;jettySize=auto;html=1;entryX=0.5;entryY=0;entryDx=0;entryDy=0;" edge="1" parent="1" source="h3RKfWugR6fdc5IdkqLa-4" target="h3RKfWugR6fdc5IdkqLa-29">
          <mxGeometry relative="1" as="geometry" />
        </mxCell>
        <mxCell id="hjcaUcdZd7pF6FUIBuIk-11" style="edgeStyle=orthogonalEdgeStyle;rounded=0;orthogonalLoop=1;jettySize=auto;html=1;entryX=0.5;entryY=0;entryDx=0;entryDy=0;" edge="1" parent="1" source="h3RKfWugR6fdc5IdkqLa-4" target="h3RKfWugR6fdc5IdkqLa-17">
          <mxGeometry relative="1" as="geometry" />
        </mxCell>
        <mxCell id="hjcaUcdZd7pF6FUIBuIk-13" style="edgeStyle=orthogonalEdgeStyle;rounded=0;orthogonalLoop=1;jettySize=auto;html=1;entryX=0.235;entryY=1.012;entryDx=0;entryDy=0;entryPerimeter=0;" edge="1" parent="1" source="h3RKfWugR6fdc5IdkqLa-6" target="h3RKfWugR6fdc5IdkqLa-12">
          <mxGeometry relative="1" as="geometry" />
        </mxCell>
        <mxCell id="hjcaUcdZd7pF6FUIBuIk-14" style="edgeStyle=orthogonalEdgeStyle;rounded=0;orthogonalLoop=1;jettySize=auto;html=1;entryX=0.995;entryY=1.025;entryDx=0;entryDy=0;entryPerimeter=0;" edge="1" parent="1" source="h3RKfWugR6fdc5IdkqLa-6" target="h3RKfWugR6fdc5IdkqLa-24">
          <mxGeometry relative="1" as="geometry" />
        </mxCell>
        <mxCell id="hjcaUcdZd7pF6FUIBuIk-15" style="edgeStyle=orthogonalEdgeStyle;rounded=0;orthogonalLoop=1;jettySize=auto;html=1;entryX=0.471;entryY=1.008;entryDx=0;entryDy=0;entryPerimeter=0;" edge="1" parent="1" source="h3RKfWugR6fdc5IdkqLa-6" target="h3RKfWugR6fdc5IdkqLa-32">
          <mxGeometry relative="1" as="geometry" />
        </mxCell>
        <mxCell id="hjcaUcdZd7pF6FUIBuIk-16" value="1" style="text;html=1;align=center;verticalAlign=middle;resizable=0;points=[];autosize=1;strokeColor=none;fillColor=none;" vertex="1" parent="1">
          <mxGeometry x="520" y="690" width="30" height="30" as="geometry" />
        </mxCell>
        <mxCell id="hjcaUcdZd7pF6FUIBuIk-17" value="1" style="text;html=1;align=center;verticalAlign=middle;resizable=0;points=[];autosize=1;strokeColor=none;fillColor=none;" vertex="1" parent="1">
          <mxGeometry x="160" y="-100" width="30" height="30" as="geometry" />
        </mxCell>
        <mxCell id="hjcaUcdZd7pF6FUIBuIk-18" value="1" style="text;html=1;align=center;verticalAlign=middle;resizable=0;points=[];autosize=1;strokeColor=none;fillColor=none;" vertex="1" parent="1">
          <mxGeometry x="430" y="-30" width="30" height="30" as="geometry" />
        </mxCell>
        <mxCell id="hjcaUcdZd7pF6FUIBuIk-19" value="1" style="text;html=1;align=center;verticalAlign=middle;resizable=0;points=[];autosize=1;strokeColor=none;fillColor=none;" vertex="1" parent="1">
          <mxGeometry x="-90" y="40" width="30" height="30" as="geometry" />
        </mxCell>
        <mxCell id="hjcaUcdZd7pF6FUIBuIk-20" value="1" style="text;html=1;align=center;verticalAlign=middle;resizable=0;points=[];autosize=1;strokeColor=none;fillColor=none;" vertex="1" parent="1">
          <mxGeometry x="160" y="40" width="30" height="30" as="geometry" />
        </mxCell>
        <mxCell id="hjcaUcdZd7pF6FUIBuIk-21" value="1" style="text;html=1;align=center;verticalAlign=middle;resizable=0;points=[];autosize=1;strokeColor=none;fillColor=none;" vertex="1" parent="1">
          <mxGeometry x="200" y="310" width="30" height="30" as="geometry" />
        </mxCell>
        <mxCell id="hjcaUcdZd7pF6FUIBuIk-23" value="M" style="text;html=1;align=center;verticalAlign=middle;resizable=0;points=[];autosize=1;strokeColor=none;fillColor=none;" vertex="1" parent="1">
          <mxGeometry x="-350" y="310" width="30" height="30" as="geometry" />
        </mxCell>
        <mxCell id="hjcaUcdZd7pF6FUIBuIk-24" value="M" style="text;html=1;align=center;verticalAlign=middle;resizable=0;points=[];autosize=1;strokeColor=none;fillColor=none;" vertex="1" parent="1">
          <mxGeometry x="-130" y="310" width="30" height="30" as="geometry" />
        </mxCell>
        <mxCell id="hjcaUcdZd7pF6FUIBuIk-25" value="M" style="text;html=1;align=center;verticalAlign=middle;resizable=0;points=[];autosize=1;strokeColor=none;fillColor=none;" vertex="1" parent="1">
          <mxGeometry x="380" y="310" width="30" height="30" as="geometry" />
        </mxCell>
        <mxCell id="hjcaUcdZd7pF6FUIBuIk-26" value="1" style="text;html=1;align=center;verticalAlign=middle;resizable=0;points=[];autosize=1;strokeColor=none;fillColor=none;" vertex="1" parent="1">
          <mxGeometry x="-210" y="760" width="30" height="30" as="geometry" />
        </mxCell>
        <mxCell id="hjcaUcdZd7pF6FUIBuIk-27" value="M" style="text;html=1;align=center;verticalAlign=middle;resizable=0;points=[];autosize=1;strokeColor=none;fillColor=none;" vertex="1" parent="1">
          <mxGeometry x="-370" y="600" width="30" height="30" as="geometry" />
        </mxCell>
        <mxCell id="hjcaUcdZd7pF6FUIBuIk-28" value="M" style="text;html=1;align=center;verticalAlign=middle;resizable=0;points=[];autosize=1;strokeColor=none;fillColor=none;" vertex="1" parent="1">
          <mxGeometry x="30" y="600" width="30" height="30" as="geometry" />
        </mxCell>
        <mxCell id="hjcaUcdZd7pF6FUIBuIk-29" value="M" style="text;html=1;align=center;verticalAlign=middle;resizable=0;points=[];autosize=1;strokeColor=none;fillColor=none;" vertex="1" parent="1">
          <mxGeometry x="150" y="600" width="30" height="30" as="geometry" />
        </mxCell>
        <mxCell id="hjcaUcdZd7pF6FUIBuIk-31" style="edgeStyle=orthogonalEdgeStyle;rounded=0;orthogonalLoop=1;jettySize=auto;html=1;entryX=0.986;entryY=0.615;entryDx=0;entryDy=0;entryPerimeter=0;" edge="1" parent="1" source="h3RKfWugR6fdc5IdkqLa-18" target="h3RKfWugR6fdc5IdkqLa-34">
          <mxGeometry relative="1" as="geometry">
            <mxPoint x="530" y="740" as="targetPoint" />
            <Array as="points">
              <mxPoint x="551" y="418" />
              <mxPoint x="551" y="720" />
              <mxPoint x="540" y="720" />
              <mxPoint x="540" y="770" />
              <mxPoint x="530" y="770" />
              <mxPoint x="530" y="760" />
            </Array>
          </mxGeometry>
        </mxCell>
        <mxCell id="hjcaUcdZd7pF6FUIBuIk-32" value="M" style="text;html=1;align=center;verticalAlign=middle;resizable=0;points=[];autosize=1;strokeColor=none;fillColor=none;" vertex="1" parent="1">
          <mxGeometry x="520" y="390" width="30" height="30" as="geometry" />
        </mxCell>
        <mxCell id="hjcaUcdZd7pF6FUIBuIk-33" value="1" style="text;html=1;align=center;verticalAlign=middle;resizable=0;points=[];autosize=1;strokeColor=none;fillColor=none;" vertex="1" parent="1">
          <mxGeometry x="30" y="760" width="30" height="30" as="geometry" />
        </mxCell>
        <mxCell id="hjcaUcdZd7pF6FUIBuIk-34" value="1" style="text;html=1;align=center;verticalAlign=middle;resizable=0;points=[];autosize=1;strokeColor=none;fillColor=none;" vertex="1" parent="1">
          <mxGeometry x="85" y="760" width="30" height="30" as="geometry" />
        </mxCell>
      </root>
    </mxGraphModel>
  </diagram>
</mxfile>
